<?xml version="1.0" encoding="UTF-8" standalone="no"?>
<svg
   xmlns:dc="http://purl.org/dc/elements/1.1/"
   xmlns:cc="http://creativecommons.org/ns#"
   xmlns:rdf="http://www.w3.org/1999/02/22-rdf-syntax-ns#"
   xmlns:svg="http://www.w3.org/2000/svg"
   xmlns="http://www.w3.org/2000/svg"
   xmlns:sodipodi="http://sodipodi.sourceforge.net/DTD/sodipodi-0.dtd"
   xmlns:inkscape="http://www.inkscape.org/namespaces/inkscape"
   inkscape:version="1.0 (4035a4fb49, 2020-05-01)"
   sodipodi:docname="logoFixed.svg"
   id="svg148"
   preserveAspectRatio="xMidYMid meet"
   viewBox="0 0 1104.000000 992.000000"
   height="992.000000pt"
   width="1104.000000pt"
   version="1.0">
  <metadata
     id="metadata154">
    <rdf:RDF>
      <cc:Work
         rdf:about="">
        <dc:format>image/svg+xml</dc:format>
        <dc:type
           rdf:resource="http://purl.org/dc/dcmitype/StillImage" />
        <dc:title></dc:title>
      </cc:Work>
    </rdf:RDF>
  </metadata>
  <defs
     id="defs152" />
  <sodipodi:namedview
     inkscape:current-layer="svg148"
     inkscape:window-maximized="1"
     inkscape:window-y="-8"
     inkscape:window-x="-8"
     inkscape:cy="369.22529"
     inkscape:cx="476.71089"
     inkscape:zoom="0.32132056"
     showgrid="false"
     id="namedview150"
     inkscape:window-height="1017"
     inkscape:window-width="1920"
     inkscape:pageshadow="2"
     inkscape:pageopacity="0"
     guidetolerance="10"
     gridtolerance="10"
     objecttolerance="10"
     borderopacity="1"
     bordercolor="#666666"
     pagecolor="#ffffff" />
  <g
     id="g146"
     stroke="none"
     fill="#000000"
     transform="translate(0.000000,992.000000) scale(0.100000,-0.100000)">
    <path
       id="path2"
       d="M5517 9905 c-21 -8 -57 -29 -80 -48 -23 -18 -53 -40 -67 -49 -14 -8 -68 -55 -120 -104 -188 -176 -228 -200 -325 -191 -66 6 -135 35 -235 96 -120 74 -207 121 -250 136 -145 51 -254 -24 -407 -280 -123 -205 -176 -255 -269 -255 -60 0 -242 33 -306 56 -55 19 -175 44 -214 44 -53 0 -128 -28 -170 -63 -54 -47 -104 -153 -149 -317 -47 -170 -84 -250 -133 -288 -20 -16 -45 -31 -54 -35 -10 -3 -104 -9 -210 -12 -337 -10 -395 -22 -462 -95 -46 -51 -53 -81 -66 -290 -14 -219 -28 -327 -45 -360 -34 -66 -126 -120 -245 -145 -41 -8 -115 -27 -165 -41 -272 -76 -309 -117 -287 -319 6 -55 21 -140 32 -190 29 -121 33 -305 7 -352 -20 -37 -94 -96 -182 -143 -201 -110 -327 -200 -350 -250 -25 -55 -25 -76 -5 -156 21 -83 60 -161 96 -195 22 -21 32 -22 326 -27 l303 -5 12 39 c45 150 132 386 198 534 42 96 80 177 83 180 4 3 19 28 34 55 14 28 31 49 36 48 6 -1 14 12 18 30 8 40 89 197 115 225 10 12 19 24 19 28 0 17 68 114 88 125 12 7 22 16 22 20 0 25 148 228 270 371 178 208 520 528 668 626 36 23 67 42 69 42 6 0 217 133 238 150 70 58 582 311 679 336 33 8 70 21 82 29 17 11 167 63 279 96 127 38 407 96 545 114 25 3 77 10 115 17 78 12 796 3 945 -12 47 -5 150 -22 230 -39 80 -16 186 -35 235 -42 50 -6 104 -20 121 -30 17 -11 39 -19 47 -19 26 0 326 -95 407 -129 156 -66 550 -263 618 -309 15 -11 47 -32 71 -48 25 -16 80 -54 124 -84 44 -30 110 -74 146 -97 36 -24 76 -54 87 -67 12 -13 43 -41 70 -61 58 -43 381 -362 462 -455 32 -35 67 -76 80 -90 13 -14 30 -37 37 -52 8 -14 26 -36 41 -47 15 -11 35 -37 45 -56 11 -20 43 -68 72 -108 30 -40 64 -91 78 -113 13 -23 42 -68 64 -100 42 -63 249 -469 264 -519 6 -16 26 -75 47 -130 61 -166 111 -316 124 -380 8 -33 16 -64 20 -70 4 -5 13 -41 20 -80 7 -38 19 -76 25 -83 10 -11 83 -15 337 -19 l324 -6 36 54 c80 122 107 234 74 314 -22 52 -99 123 -219 203 -59 40 -110 72 -113 72 -8 0 -138 83 -169 108 -55 45 -65 70 -61 147 5 82 15 128 61 280 54 178 61 246 34 347 -26 99 -138 166 -364 218 -169 39 -210 52 -269 89 -97 59 -98 62 -97 332 1 319 -10 379 -85 454 -56 56 -91 63 -354 68 -268 6 -321 15 -377 68 -62 60 -91 140 -144 404 -22 113 -86 217 -154 252 -40 21 -161 12 -285 -22 -154 -43 -321 -68 -387 -60 -55 6 -61 10 -115 67 -53 56 -82 102 -173 275 -18 34 -44 77 -56 95 -39 54 -116 127 -142 133 -64 16 -207 -37 -417 -156 -146 -83 -254 -107 -328 -72 -21 9 -100 79 -177 155 -77 75 -160 152 -185 169 -25 18 -47 35 -50 39 -22 30 -112 44 -163 25z" />
    <path
       id="path4"
       d="M5350 8953 c-389 -11 -853 -105 -1220 -248 -475 -185 -837 -397 -1235 -722 -132 -108 -483 -474 -593 -618 -122 -162 -255 -355 -270 -395 -3 -8 -17 -31 -30 -50 -40 -59 -187 -367 -241 -506 -59 -154 -88 -253 -97 -336 -7 -61 -7 -61 17 -55 13 4 27 7 30 7 12 0 42 79 84 224 14 48 32 97 39 109 8 12 27 56 42 97 33 93 50 130 116 251 155 282 250 441 306 511 20 26 76 97 124 158 123 158 178 220 308 351 384 386 818 676 1323 883 22 9 37 22 37 32 0 12 3 14 13 6 10 -8 43 -1 127 29 235 83 435 133 680 173 348 56 910 45 1315 -25 180 -31 443 -106 660 -188 416 -156 886 -440 1205 -727 234 -211 530 -560 665 -786 109 -182 148 -253 214 -387 43 -87 93 -197 110 -243 18 -45 36 -92 41 -103 17 -43 110 -334 129 -401 23 -87 37 -114 57 -114 29 0 7 98 -83 375 -101 311 -218 566 -391 850 -103 168 -203 306 -353 485 -131 156 -281 308 -425 430 -135 115 -390 298 -529 380 -22 13 -62 38 -90 55 -76 50 -298 158 -457 224 -353 146 -799 255 -1098 266 -170 7 -427 10 -530 8z" />
    <path
       id="path6"
       d="M5515 8508 c-41 -111 -81 -225 -94 -273 l-18 -60 -179 -5 c-114 -3 -177 -9 -174 -15 4 -9 46 -43 146 -119 66 -50 114 -99 114 -116 0 -9 -20 -84 -45 -166 -43 -142 -52 -184 -39 -184 7 0 160 103 214 145 63 49 92 57 123 37 41 -28 180 -134 207 -159 44 -41 48 -33 24 46 -20 70 -44 206 -44 256 0 40 2 42 103 117 107 80 165 134 155 144 -4 3 -86 8 -183 11 -96 3 -178 9 -180 13 -3 4 -20 69 -39 144 -20 74 -42 149 -51 166 -16 31 -32 39 -40 18z" />
    <path
       id="path8"
       d="M3921 8118 c-52 -164 -35 -148 -153 -148 -57 0 -109 -4 -115 -8 -9 -6 5 -27 50 -73 34 -35 74 -71 87 -80 l25 -16 -18 -64 c-10 -35 -23 -81 -29 -102 -19 -67 1 -68 95 -4 46 31 90 57 99 57 8 0 35 -15 59 -33 84 -62 129 -88 129 -74 0 8 -7 36 -15 63 -8 27 -18 79 -21 115 l-7 67 92 67 c50 37 88 71 85 76 -3 5 -46 9 -95 9 -53 0 -103 6 -122 14 -29 12 -35 22 -67 125 -19 61 -37 111 -41 111 -3 0 -21 -46 -38 -102z" />
    <path
       id="path10"
       d="M7053 8123 c-12 -27 -32 -80 -44 -119 l-22 -72 -114 -7 c-62 -4 -113 -11 -113 -16 0 -4 19 -21 43 -38 23 -16 60 -48 82 -70 l39 -41 -18 -77 c-10 -43 -22 -91 -27 -107 -23 -73 -8 -73 107 4 49 33 95 60 101 60 7 0 51 -30 98 -66 47 -37 88 -65 89 -63 2 2 -9 58 -24 124 -15 70 -23 125 -18 131 5 6 47 40 93 75 47 34 85 66 85 70 0 4 -49 8 -110 11 -101 3 -112 5 -135 28 -13 14 -29 45 -34 70 -29 130 -35 150 -45 150 -6 0 -21 -21 -33 -47z" />
    <path
       id="path12"
       d="M3720 7253 c-85 -31 -117 -55 -150 -110 -35 -57 -35 -58 -33 -169 2 -126 15 -169 66 -222 34 -36 96 -72 122 -72 22 0 30 27 14 46 -11 13 -13 61 -11 223 3 182 6 211 23 248 26 55 16 73 -31 56z" />
    <path
       id="path14"
       d="M3814 7235 c-4 -8 0 -30 7 -49 19 -46 7 -391 -15 -453 -17 -48 -9 -60 34 -54 57 7 122 56 164 123 24 36 24 233 1 298 -18 52 -64 104 -117 131 -45 23 -67 24 -74 4z" />
    <path
       id="path16"
       d="M4160 7233 c-58 -5 -66 -15 -44 -52 16 -28 17 -44 7 -233 -6 -112 -16 -216 -22 -232 -7 -16 -9 -31 -6 -34 9 -9 232 -8 240 0 4 4 2 21 -5 37 -13 32 -5 201 10 201 15 0 40 -31 44 -53 3 -12 8 -49 11 -81 6 -50 13 -66 40 -93 29 -29 40 -33 84 -33 59 0 106 20 114 49 5 22 -20 51 -45 51 -12 0 -18 16 -23 70 -6 64 -10 73 -42 99 l-35 29 32 17 c57 29 78 121 40 182 -28 46 -56 61 -131 69 -79 8 -90 -1 -58 -52 18 -30 21 -46 17 -103 -5 -66 -30 -124 -52 -118 -4 2 -8 59 -7 128 1 69 -1 133 -5 142 -6 17 -46 20 -164 10z" />
    <path
       id="path18"
       d="M4735 7223 c-33 -8 -38 -19 -21 -51 14 -27 15 -55 6 -232 -8 -147 -15 -210 -26 -232 -8 -16 -13 -32 -10 -36 9 -9 243 -8 252 1 5 4 0 23 -10 41 -16 30 -17 50 -8 233 6 144 13 208 24 231 11 22 13 33 5 41 -11 11 -171 14 -212 4z" />
    <path
       id="path20"
       d="M5185 7223 c-36 -7 -119 -77 -143 -121 -20 -36 -23 -56 -23 -147 0 -71 5 -122 16 -155 25 -76 112 -150 176 -150 19 0 20 4 13 28 -10 34 -5 473 6 487 4 6 10 21 12 35 3 26 -13 33 -57 23z" />
    <path
       id="path22"
       d="M5287 7223 c-15 -14 -5 -32 29 -54 20 -12 55 -51 80 -90 62 -98 74 -93 80 31 3 63 0 83 -14 100 -15 18 -21 19 -49 10 -22 -8 -42 -8 -70 -1 -45 13 -48 13 -56 4z" />
    <path
       id="path24"
       d="M5630 7213 c-52 -7 -64 -20 -45 -49 12 -18 15 -55 15 -166 0 -158 -12 -264 -35 -308 -10 -20 -12 -31 -4 -35 10 -7 248 -9 255 -3 2 2 -4 24 -13 48 -22 64 -13 384 12 448 10 25 14 47 9 52 -11 10 -146 19 -194 13z" />
    <path
       id="path26"
       d="M5932 7213 c-60 -5 -78 -25 -43 -49 19 -14 139 -205 165 -264 22 -49 109 -205 133 -237 22 -30 29 -33 79 -33 l54 0 0 89 c0 85 -2 93 -41 168 -34 64 -168 312 -174 320 -4 6 -124 10 -173 6z" />
    <path
       id="path28"
       d="M6318 7201 c-26 -4 -50 -10 -53 -13 -4 -3 3 -24 14 -47 15 -28 21 -59 21 -101 0 -65 17 -150 30 -150 4 0 11 26 15 58 13 110 26 153 58 189 l31 35 -23 19 c-13 11 -28 18 -35 18 -6 -1 -32 -5 -58 -8z" />
    <path
       id="path30"
       d="M6713 7190 c-85 -9 -94 -19 -87 -89 3 -31 15 -95 26 -143 26 -116 23 -128 -29 -143 -24 -7 -43 -10 -43 -6 0 3 7 31 15 61 22 82 18 210 -6 210 -5 0 -16 -26 -24 -57 -38 -139 -89 -291 -111 -332 -13 -24 -24 -47 -24 -52 0 -12 117 -11 140 1 19 10 19 11 -1 44 -15 26 -17 39 -9 60 11 31 49 35 106 11 l36 -15 -4 -57 -3 -58 96 -3 c53 -1 108 2 123 8 26 10 27 12 13 33 -20 31 -59 173 -98 357 -18 85 -37 160 -43 166 -7 6 -34 8 -73 4z" />
    <path
       id="path32"
       d="M7082 7180 c-29 -4 -56 -11 -59 -14 -3 -3 2 -18 12 -32 16 -25 17 -46 11 -223 -7 -199 -11 -236 -28 -258 -20 -26 5 -33 112 -33 l108 0 6 138 c10 233 23 367 37 390 7 11 11 24 8 27 -10 10 -154 14 -207 5z" />
    <path
       id="path34"
       d="M5300 6943 c-38 -15 -41 -24 -19 -60 20 -32 21 -40 11 -106 -7 -40 -15 -85 -18 -101 l-7 -29 53 6 c62 8 135 48 144 79 3 13 6 38 6 56 0 18 5 53 11 78 16 64 2 76 -93 80 -40 2 -80 1 -88 -3z" />
    <path
       id="path36"
       d="M7400 6761 c-20 -40 -45 -63 -99 -93 -26 -15 -30 -21 -22 -36 8 -15 23 -19 89 -19 l79 -1 6 85 c4 48 4 90 1 95 -12 19 -35 6 -54 -31z" />
    <path
       id="path38"
       d="M3225 6320 c11 -4 63 -11 115 -14 52 -4 176 -14 275 -21 365 -29 731 -44 1175 -50 250 -3 599 -10 775 -16 363 -11 664 -10 683 4 7 6 17 6 25 0 8 -7 105 -8 277 -3 146 5 378 11 515 15 138 3 313 10 390 15 77 5 175 10 218 10 42 0 77 4 77 9 0 6 -222 9 -542 10 -652 0 -1008 6 -1428 23 -360 15 -463 15 -1240 6 -500 -5 -973 0 -1245 15 -49 3 -81 2 -70 -3z" />
    <path
       id="path40"
       d="M339 5999 c-113 -12 -225 -85 -273 -177 -11 -22 -17 -78 -21 -213 -4 -101 -13 -319 -22 -484 -24 -479 -26 -591 -14 -642 16 -62 71 -127 135 -157 51 -25 53 -25 506 -35 250 -6 516 -13 590 -16 74 -2 277 -7 450 -10 173 -3 428 -10 565 -15 138 -5 381 -12 540 -15 160 -3 421 -10 580 -15 160 -5 504 -17 765 -25 261 -8 603 -20 760 -25 157 -6 422 -15 590 -20 168 -6 373 -12 455 -15 172 -6 718 -22 1005 -30 107 -3 344 -10 525 -15 182 -5 470 -12 640 -15 311 -6 787 -18 1440 -35 193 -5 478 -12 635 -15 157 -3 308 -7 335 -10 28 -2 102 0 166 4 101 7 126 13 181 40 65 31 118 84 138 136 14 37 22 313 23 880 l2 500 -27 50 c-34 65 -70 98 -143 132 -57 26 -69 28 -265 34 -245 8 -1168 24 -2585 44 -572 8 -1157 17 -1300 20 -143 3 -478 10 -745 15 -481 10 -703 16 -1665 45 -1490 45 -2105 61 -2915 75 -355 5 -721 12 -815 13 -93 2 -200 0 -236 -4z m8983 -441 c62 -50 -12 -152 -77 -105 -35 26 4 117 50 117 6 0 18 -6 27 -12z m241 -16 c20 -18 21 -29 5 -65 -17 -34 -52 -51 -78 -37 -31 17 -35 55 -10 95 24 38 45 40 83 7z m-8776 -8 c37 -8 80 -13 95 -10 15 3 30 0 34 -5 17 -29 -5 -221 -27 -235 -16 -10 -38 16 -70 80 -17 34 -50 82 -75 107 -31 31 -43 51 -38 62 7 20 -1 20 81 1z m-173 0 c22 -8 20 -47 -3 -68 -11 -10 -25 -30 -31 -46 -10 -24 -9 -35 6 -67 15 -31 38 -49 115 -93 138 -80 175 -109 205 -164 23 -42 26 -56 20 -107 -11 -109 -26 -149 -75 -200 -46 -47 -72 -59 -170 -74 l-44 -7 7 28 c4 16 22 42 41 57 26 21 35 37 35 58 0 55 -26 85 -131 151 -131 81 -198 142 -208 188 -10 49 7 176 30 226 24 50 56 81 106 105 41 19 72 23 97 13z m786 -33 c0 -11 -16 -38 -35 -61 -19 -22 -37 -57 -41 -77 -4 -19 -7 -156 -8 -302 l-1 -267 26 -35 c26 -35 28 -59 4 -59 -44 0 -151 45 -189 80 -68 62 -90 118 -94 236 -8 204 39 350 141 438 61 52 90 64 155 65 35 1 42 -2 42 -18z m151 4 c28 -10 58 -13 86 -9 l43 6 0 -85 c0 -94 -16 -188 -34 -199 -13 -8 -45 29 -46 52 0 36 -69 157 -104 186 -27 21 -35 34 -31 47 9 21 30 22 86 2z m549 -10 c70 -19 74 -24 57 -76 -8 -23 -16 -86 -18 -138 -6 -140 -5 -531 1 -566 l5 -30 -115 0 c-120 1 -194 9 -220 25 -12 8 -9 15 17 42 l33 34 11 317 11 318 -26 28 c-30 31 -34 57 -8 65 29 8 195 -4 252 -19z m335 5 c50 -6 92 -15 93 -20 2 -6 7 -8 12 -5 11 6 60 -15 60 -26 0 -5 -13 -24 -30 -42 l-30 -35 -1 -153 c-1 -85 -4 -227 -8 -317 -3 -89 -4 -162 -1 -162 3 0 12 -13 21 -29 l17 -29 -37 -6 c-103 -17 -301 1 -301 28 0 7 9 22 20 34 18 19 20 35 20 176 l0 156 -27 6 c-50 11 -54 14 -51 36 2 19 11 24 48 28 l45 5 3 140 c2 118 0 145 -15 173 -29 54 -4 61 162 42z m528 -15 c111 -10 148 -41 112 -89 -21 -28 -19 -54 20 -221 49 -210 51 -235 25 -325 -12 -41 -29 -101 -38 -133 l-16 -58 -70 3 c-69 3 -70 4 -77 33 -4 17 -19 84 -34 150 -41 182 -62 277 -93 421 -16 77 -37 145 -51 168 -14 21 -20 41 -15 46 9 9 108 17 154 13 14 -1 51 -5 83 -8z m398 -27 c3 -5 13 -46 22 -91 33 -164 46 -223 66 -297 11 -41 21 -89 21 -107 0 -39 -66 -303 -79 -316 -6 -6 -33 -7 -73 -1 l-63 9 -26 131 c-15 72 -39 171 -53 220 -38 130 -35 191 19 329 13 33 26 80 30 104 l7 43 61 -7 c34 -3 65 -11 68 -17z m293 -9 c42 -20 42 -34 1 -59 -41 -25 -61 -65 -95 -185 -12 -42 -30 -95 -40 -118 l-19 -42 0 46 c-1 25 8 79 19 120 25 95 25 149 1 180 -17 22 -25 49 -22 73 2 13 122 2 155 -15z m489 -10 c20 -5 37 -11 37 -13 0 -4 86 -431 109 -546 11 -52 23 -111 27 -130 3 -19 15 -50 25 -68 35 -60 32 -62 -100 -62 -118 0 -217 12 -234 29 -5 5 -2 22 7 39 18 35 21 79 6 116 -8 22 -17 26 -69 32 -77 8 -99 22 -80 51 9 15 27 23 66 28 30 4 56 12 59 18 2 7 -5 48 -16 92 -23 89 -60 308 -60 354 0 16 5 42 10 57 l11 27 82 -7 c45 -4 99 -11 120 -17z m861 -14 c39 -12 57 -13 83 -4 58 19 67 2 60 -111 -10 -147 -33 -203 -71 -171 -8 6 -37 55 -65 109 -47 88 -73 118 -130 152 -8 4 -11 15 -8 24 8 21 65 21 131 1z m-199 -6 c4 -5 -6 -29 -21 -52 l-28 -42 -9 -323 c-8 -316 -8 -323 12 -356 26 -42 26 -46 -1 -46 -60 0 -203 92 -233 150 -48 93 -61 270 -29 407 30 128 80 199 179 251 42 22 119 29 130 11z m749 -5 l47 -7 -2 -171 c-2 -292 -18 -639 -30 -647 -11 -7 -144 -3 -237 7 -64 7 -78 27 -39 58 l26 21 8 230 c13 384 12 429 -14 457 -13 14 -23 32 -23 41 0 15 13 17 109 17 59 0 129 -3 155 -6z m319 -16 c14 -7 17 -22 17 -76 0 -37 -3 -84 -6 -104 -9 -52 -35 -51 -59 2 -21 47 -86 110 -132 129 -27 11 -33 19 -33 43 l0 30 98 -7 c53 -4 105 -12 115 -17z m442 -7 l30 -8 -4 -359 c-3 -315 -2 -364 13 -398 9 -21 16 -42 16 -47 0 -13 -267 -11 -312 2 -44 12 -46 21 -14 60 29 35 33 72 42 416 l6 252 -26 34 c-29 38 -32 53 -13 61 16 8 224 -2 262 -13z m296 -23 c95 -43 128 -105 109 -209 -18 -96 -32 -116 -108 -152 -61 -28 -64 -31 -41 -39 107 -39 158 -95 159 -173 1 -22 4 -58 8 -80 7 -36 10 -40 34 -37 35 4 43 -12 21 -48 -47 -80 -217 -95 -283 -25 -20 21 -25 42 -35 148 -12 124 -23 159 -57 187 -23 19 -16 65 12 80 45 24 50 38 50 134 0 100 -13 148 -49 180 -21 19 -27 46 -13 60 14 16 137 -1 193 -26z m957 -3 c9 -10 -1 -521 -14 -724 l-6 -104 -127 5 c-120 5 -171 16 -171 38 0 5 11 19 24 32 l24 23 6 329 7 329 -26 27 c-17 18 -23 33 -19 44 6 16 20 18 150 14 79 -2 147 -8 152 -13z m247 -7 c99 -16 146 -62 161 -158 11 -66 -2 -105 -53 -154 -26 -26 -64 -51 -85 -58 -41 -12 -49 -25 -20 -34 89 -27 162 -103 162 -170 0 -50 -37 -158 -63 -182 -35 -33 -139 -62 -223 -62 -67 0 -74 2 -74 20 0 12 15 29 41 45 l41 26 -4 136 -3 135 -39 33 c-30 25 -37 37 -32 53 4 12 15 24 26 27 10 3 30 15 44 26 24 19 26 26 26 105 0 97 -17 148 -54 166 -25 11 -35 45 -19 61 7 8 66 2 168 -15z m595 -3 c20 -6 20 -14 18 -380 l-3 -373 24 -26 c15 -16 21 -31 17 -42 -6 -16 -21 -17 -164 -11 -215 9 -228 14 -176 68 l26 27 5 325 6 326 -26 31 c-34 40 -34 58 1 62 43 5 250 0 272 -7z m291 -22 c56 -25 86 -49 105 -85 31 -60 6 -209 -42 -247 -15 -12 -50 -28 -80 -38 -52 -16 -63 -33 -22 -33 33 0 111 -48 136 -84 14 -20 25 -54 28 -87 11 -116 12 -119 43 -119 40 0 46 -25 16 -64 -33 -44 -107 -70 -172 -60 -118 17 -137 43 -145 199 -5 103 -18 144 -57 179 -30 27 -26 50 13 89 27 27 35 44 40 89 11 88 -16 210 -50 231 -20 12 -18 55 4 59 35 7 138 -10 183 -29z m839 2 c10 -3 24 -39 39 -102 13 -54 29 -120 36 -148 7 -27 22 -95 34 -150 36 -172 81 -347 96 -378 22 -45 19 -55 -22 -63 -47 -9 -310 9 -323 22 -6 6 -2 24 11 48 19 37 20 42 7 90 l-15 51 -72 7 c-85 7 -97 15 -80 51 11 24 18 27 59 27 67 0 78 16 57 83 -21 69 -44 182 -61 308 -12 88 -13 108 -1 136 l14 33 103 -6 c57 -2 110 -7 118 -9z m703 -6 c54 -15 58 -36 15 -73 l-35 -31 1 -311 1 -311 35 -44 c46 -57 44 -89 -6 -89 -53 0 -185 29 -219 49 -16 9 -40 35 -52 56 -21 38 -22 43 -16 352 l6 314 -33 34 c-28 29 -31 37 -20 50 10 12 38 15 149 15 75 0 153 -5 174 -11z m361 -9 c33 -5 64 -14 69 -19 7 -7 -5 -27 -35 -59 -53 -56 -53 -55 -64 -337 -11 -279 -17 -309 -77 -360 -39 -34 -101 -60 -118 -49 -15 9 21 52 59 70 70 33 82 58 82 173 0 54 4 91 10 91 6 0 10 5 10 11 0 5 -4 8 -9 4 -6 -3 -10 69 -10 181 0 139 -4 189 -13 198 -7 6 -24 24 -38 39 -21 24 -22 30 -10 37 11 7 12 10 2 10 -7 0 -10 5 -7 10 8 13 73 13 149 0z m-6739 -209 c-9 -42 -30 -120 -46 -173 -45 -148 -47 -178 -15 -233 15 -25 24 -50 21 -55 -3 -6 -36 -9 -73 -9 -135 3 -158 22 -84 72 23 15 42 35 42 43 0 8 5 22 10 32 6 9 30 88 55 176 25 87 55 175 65 197 11 21 20 47 20 57 0 10 3 22 8 26 14 15 13 -58 -3 -133z m1917 -84 c-4 -104 -22 -172 -44 -165 -7 3 -21 23 -33 45 -11 23 -28 50 -38 60 -9 11 -17 28 -17 39 0 23 122 148 130 134 4 -6 5 -57 2 -113z m3470 45 c0 -15 -19 -93 -41 -172 -22 -80 -45 -175 -52 -212 -12 -65 -12 -68 14 -107 43 -65 39 -71 -50 -70 -94 1 -127 9 -131 32 -3 12 10 23 43 37 37 16 50 28 66 64 19 44 78 232 122 388 22 78 31 90 29 40z m-4150 -63 c20 -5 44 -16 52 -25 14 -14 14 -18 -1 -47 -11 -21 -19 -69 -23 -140 -8 -121 -4 -115 -105 -167 -38 -19 -83 -32 -122 -36 -61 -7 -63 -6 -63 17 0 12 12 36 27 51 26 27 27 34 31 148 4 120 4 121 -22 145 -14 13 -26 33 -26 44 0 17 8 20 58 23 70 4 145 -1 194 -13z m-4660 -107 c34 -69 58 -104 83 -122 19 -14 35 -33 35 -43 0 -17 -6 -18 -50 -12 -49 7 -85 7 -140 2 -25 -2 -25 -2 -23 78 3 97 22 195 37 195 6 0 32 -44 58 -98z m1208 -24 c0 -33 -54 -123 -88 -146 -37 -27 -120 -48 -133 -35 -16 16 8 62 38 74 72 28 110 53 135 89 31 45 48 51 48 18z m4238 -135 c2 -39 -1 -93 -5 -119 -8 -47 -10 -49 -43 -50 -45 -2 -180 12 -187 20 -3 3 -3 16 1 30 4 18 18 28 56 41 45 15 110 71 110 94 0 16 42 62 54 58 6 -2 12 -33 14 -74z" />
    <path
       id="path42"
       d="M803 4213 c-27 -5 -70 -64 -124 -171 -31 -59 -39 -86 -39 -127 0 -124 35 -165 271 -322 253 -167 280 -201 264 -331 -7 -61 -12 -80 -71 -267 -42 -133 -55 -256 -35 -318 28 -83 132 -143 349 -201 139 -38 198 -63 270 -116 74 -54 77 -65 77 -395 0 -286 0 -290 24 -330 34 -59 42 -66 90 -88 35 -15 88 -22 265 -32 254 -16 316 -26 368 -60 76 -50 105 -116 148 -338 48 -248 96 -340 190 -368 55 -17 237 1 360 36 67 19 128 28 210 32 l115 5 34 -29 c53 -44 104 -120 170 -251 83 -166 142 -256 193 -293 41 -29 47 -31 123 -27 75 3 88 7 205 66 69 34 150 78 180 97 63 40 166 75 220 75 62 0 113 -38 302 -226 211 -209 257 -240 344 -231 28 3 62 11 75 19 47 26 216 164 322 262 60 56 118 106 130 113 36 20 128 15 188 -9 30 -12 83 -42 119 -68 72 -51 192 -126 257 -158 59 -30 122 -42 183 -35 49 6 59 12 126 75 50 48 83 90 109 141 21 39 48 86 60 102 12 17 40 62 63 100 23 39 58 86 78 105 35 35 36 35 127 34 99 0 174 -17 357 -78 66 -22 136 -38 187 -42 76 -6 86 -5 136 20 41 20 62 39 88 79 50 78 57 98 85 237 8 41 31 118 50 170 81 218 135 246 445 230 277 -14 370 1 433 70 42 47 43 54 51 353 7 274 20 332 86 392 58 52 124 79 269 110 253 53 346 88 391 147 22 30 24 41 22 133 -1 73 -9 127 -28 200 -49 180 -56 219 -56 285 -1 76 13 141 35 174 24 37 94 89 186 138 286 152 325 179 367 247 40 64 14 171 -85 343 l-57 98 -80 0 c-44 0 -177 3 -295 6 -248 7 -264 4 -275 -53 -4 -21 -17 -69 -30 -108 -13 -38 -31 -99 -40 -135 -9 -36 -20 -69 -23 -75 -4 -5 -14 -30 -23 -55 -36 -96 -128 -322 -137 -333 -9 -11 -26 -43 -137 -252 -43 -81 -147 -255 -168 -280 -4 -5 -30 -44 -57 -85 -27 -41 -61 -89 -77 -106 -44 -49 -61 -71 -87 -112 -13 -21 -59 -76 -102 -122 -324 -351 -554 -553 -854 -751 -80 -53 -152 -99 -160 -103 -8 -4 -42 -23 -75 -42 -178 -103 -476 -234 -715 -314 -269 -91 -478 -141 -735 -179 -189 -28 -234 -31 -450 -31 -132 0 -289 4 -350 9 -60 6 -182 15 -270 21 -107 8 -203 22 -290 42 -71 17 -200 45 -286 63 -86 18 -164 37 -175 43 -10 5 -84 31 -164 57 -80 26 -185 66 -235 90 -49 24 -146 70 -215 103 -110 52 -330 173 -430 236 -229 146 -320 211 -425 307 -27 26 -70 64 -94 85 -72 63 -103 95 -176 179 -38 44 -110 125 -160 180 -50 55 -107 118 -127 140 -58 65 -122 147 -148 190 -13 22 -26 42 -30 45 -10 9 -57 85 -84 135 -15 28 -40 70 -56 95 -16 25 -34 54 -40 65 -6 11 -29 52 -51 90 -22 39 -51 95 -65 125 -14 30 -36 78 -49 105 -13 28 -35 79 -50 115 -14 36 -30 74 -34 85 -15 34 -57 147 -80 215 -33 95 -110 394 -126 491 l-7 36 -111 6 c-120 7 -418 7 -454 0z" />
    <path
       id="path44"
       d="M1577 4184 c-10 -10 1 -57 56 -239 106 -358 224 -644 385 -930 80 -144 237 -379 331 -497 180 -225 704 -712 852 -792 30 -15 63 -36 74 -45 69 -60 479 -274 670 -351 118 -47 412 -140 555 -175 299 -73 470 -91 935 -101 300 -6 316 -6 495 20 174 24 438 76 560 110 117 32 139 39 275 87 258 92 427 167 655 292 423 230 858 606 1207 1042 63 79 255 369 302 455 74 137 157 315 226 485 87 213 147 455 114 455 -49 -1 -58 -12 -85 -99 -15 -47 -30 -95 -35 -106 -4 -11 -20 -55 -33 -97 -44 -133 -177 -426 -256 -563 -12 -22 -34 -60 -48 -85 -30 -54 -75 -125 -155 -245 -246 -367 -576 -701 -977 -986 -225 -161 -563 -342 -802 -431 -131 -48 -374 -126 -478 -153 -177 -45 -522 -106 -635 -112 -121 -6 -754 21 -868 37 -126 18 -493 104 -667 157 -252 77 -610 234 -795 350 -555 349 -926 713 -1297 1270 -40 60 -75 110 -79 113 -3 3 -10 16 -14 29 -5 18 -9 20 -16 10 -9 -15 -9 -16 -14 31 -3 29 -25 71 -40 77 -9 3 -14 11 -11 18 2 7 -13 48 -35 91 -21 44 -39 82 -39 86 0 4 -14 37 -31 75 -16 37 -34 77 -39 88 -4 11 -15 37 -24 57 -9 20 -32 83 -52 140 -44 128 -57 158 -66 158 -4 0 -5 7 -2 15 4 8 2 21 -3 28 -6 6 -18 48 -27 92 -10 44 -22 95 -28 113 -9 30 -26 41 -41 26z" />
    <path
       id="path46"
       d="M2426 3792 c-14 -23 54 -154 166 -319 86 -126 217 -238 245 -209 3 3 -12 27 -34 53 -82 98 -211 280 -249 352 -48 90 -111 150 -128 123z" />
    <path
       id="path48"
       d="M2640 3769 c0 -25 87 -193 134 -259 18 -25 49 -74 70 -109 60 -98 128 -174 175 -195 23 -11 44 -17 47 -14 2 3 -20 41 -50 84 -31 44 -65 93 -77 109 -26 38 -88 134 -163 254 -70 110 -103 151 -122 151 -8 0 -14 -10 -14 -21z" />
    <path
       id="path50"
       d="M5135 3776 c-70 -18 -169 -60 -226 -96 -48 -31 -146 -136 -136 -146 3 -3 64 1 136 10 72 9 133 16 136 16 3 0 39 31 80 69 40 38 102 86 136 107 53 31 59 39 43 45 -29 11 -113 9 -169 -5z" />
    <path
       id="path52"
       d="M5544 3778 c-3 -5 -4 -11 -3 -12 2 -2 30 -20 62 -41 32 -21 77 -60 100 -88 112 -133 102 -128 280 -143 67 -5 87 -4 87 6 0 24 -135 142 -213 186 -126 71 -296 121 -313 92z" />
    <path
       id="path54"
       d="M5326 3746 c-36 -19 -84 -47 -108 -63 -48 -32 -129 -127 -160 -188 -11 -22 -26 -43 -32 -47 -23 -15 6 -20 51 -9 117 30 284 148 329 234 8 15 18 27 22 27 4 0 32 -35 62 -76 30 -42 82 -98 115 -125 56 -46 181 -107 193 -94 10 9 -33 86 -89 162 -71 96 -235 213 -298 213 -11 0 -49 -15 -85 -34z" />
    <path
       id="path56"
       d="M7974 3683 c-52 -120 -98 -218 -108 -232 -23 -30 -213 -366 -210 -370 6 -7 98 31 118 48 70 61 259 429 279 546 6 38 -8 65 -34 65 -15 0 -27 -15 -45 -57z" />
    <path
       id="path58"
       d="M8127 3708 c-8 -13 -36 -77 -62 -143 -73 -187 -104 -255 -153 -330 -70 -109 -71 -112 -65 -119 8 -8 71 3 96 16 19 10 103 135 150 223 57 107 100 237 101 305 1 63 0 65 -26 68 -19 2 -31 -3 -41 -20z" />
    <path
       id="path60"
       d="M2287 3698 c-12 -37 92 -240 188 -364 42 -54 104 -125 138 -157 60 -56 62 -57 65 -31 4 28 -17 65 -107 184 -32 41 -81 111 -110 155 -30 44 -62 92 -73 107 -10 15 -18 31 -18 35 0 5 -11 25 -25 46 -26 37 -50 48 -58 25z" />
    <path
       id="path62"
       d="M8293 3658 c-11 -13 -31 -54 -43 -93 -22 -70 -115 -291 -130 -310 -24 -30 -90 -170 -90 -190 0 -27 20 -75 30 -75 12 0 75 81 104 135 16 28 43 77 61 110 19 33 57 118 85 188 45 114 51 136 48 190 -3 54 -6 62 -23 65 -12 2 -30 -7 -42 -20z" />
    <path
       id="path64"
       d="M5398 3619 c-26 -15 -58 -73 -58 -108 0 -17 6 -46 13 -64 8 -18 17 -49 21 -70 11 -56 27 -87 46 -87 13 0 23 24 44 110 l27 111 -21 43 c-27 57 -50 77 -72 65z" />
    <path
       id="path66"
       d="M2190 3540 c0 -34 97 -231 150 -303 99 -136 338 -394 327 -352 -3 11 -10 38 -16 60 -7 27 -32 64 -74 110 -66 72 -214 288 -281 409 -42 75 -68 106 -91 106 -10 0 -15 -10 -15 -30z" />
    <path
       id="path68"
       d="M8394 3496 c-8 -14 -36 -78 -60 -143 -56 -147 -133 -307 -186 -385 -49 -71 -78 -145 -78 -198 0 -54 17 -59 56 -16 19 21 34 39 34 40 0 2 25 44 56 92 31 49 74 125 96 168 22 44 50 96 63 115 31 51 94 233 101 297 l7 54 -36 0 c-28 0 -40 -6 -53 -24z" />
    <path
       id="path70"
       d="M5233 3479 c-24 -16 -69 -43 -100 -59 -88 -43 -97 -57 -102 -157 -2 -58 2 -108 14 -156 18 -75 53 -157 67 -157 5 0 23 15 41 33 18 19 52 46 76 61 66 42 151 133 151 162 0 14 -8 41 -19 62 -10 20 -22 53 -26 72 -25 125 -38 170 -48 170 -7 -1 -31 -14 -54 -31z" />
    <path
       id="path72"
       d="M4860 3481 c-110 -31 -117 -36 -169 -115 -34 -52 -53 -96 -64 -143 -31 -135 -29 -254 4 -261 8 -1 45 19 81 46 45 33 90 55 141 71 125 37 147 67 147 208 0 77 -10 93 -59 93 -12 0 -21 2 -21 5 0 3 16 27 35 53 19 27 32 52 28 55 -11 11 -54 7 -123 -12z" />
    <path
       id="path74"
       d="M5505 3468 c-2 -7 -11 -44 -20 -82 -8 -37 -27 -97 -41 -133 l-26 -65 32 -47 c18 -26 47 -57 65 -70 18 -12 63 -49 101 -81 38 -33 74 -60 81 -60 31 0 83 161 83 254 -1 147 -30 202 -118 226 -22 5 -56 24 -77 40 -40 31 -73 39 -80 18z" />
    <path
       id="path76"
       d="M5840 3450 c0 -6 13 -31 30 -58 l29 -47 -37 -5 -37 -5 2 -97 c2 -130 11 -142 156 -214 62 -30 126 -68 142 -84 48 -46 55 -40 55 48 -1 155 -34 281 -101 379 -35 51 -55 62 -134 79 -73 16 -105 17 -105 4z" />
    <path
       id="path78"
       d="M2774 3144 c-21 -171 42 -262 176 -252 59 4 72 28 68 127 -3 72 -4 74 -43 107 -42 35 -131 74 -170 74 -21 0 -24 -6 -31 -56z" />
    <path
       id="path80"
       d="M3091 3026 c-56 -123 -60 -159 -29 -228 14 -29 35 -64 47 -78 l21 -25 36 40 c78 86 90 137 58 245 -16 53 -67 140 -83 140 -4 0 -27 -42 -50 -94z" />
    <path
       id="path82"
       d="M5359 3084 c-18 -19 -60 -54 -91 -77 -79 -58 -86 -74 -64 -140 24 -68 75 -144 136 -201 57 -53 82 -57 115 -18 93 109 116 140 135 178 24 53 25 102 2 129 -9 11 -48 44 -87 74 -38 30 -76 63 -83 73 -18 25 -23 23 -63 -18z" />
    <path
       id="path84"
       d="M4946 3085 c-10 -8 -51 -27 -90 -42 -76 -28 -140 -71 -171 -112 -16 -21 -20 -46 -23 -132 -6 -161 26 -319 64 -319 8 0 31 27 53 59 22 32 65 85 96 117 30 33 57 67 61 77 3 9 10 17 15 17 14 0 45 73 64 156 17 69 17 71 -5 132 -24 65 -32 71 -64 47z" />
    <path
       id="path86"
       d="M5783 3021 c-17 -52 -16 -92 2 -167 15 -63 34 -99 119 -226 27 -40 68 -101 90 -135 23 -34 48 -63 58 -63 41 0 81 266 60 397 -10 62 -15 72 -55 108 -37 34 -150 90 -247 121 -11 4 -19 -7 -27 -35z" />
    <path
       id="path88"
       d="M7920 3041 c-74 -23 -98 -37 -142 -79 -34 -32 -38 -41 -37 -82 0 -25 6 -67 13 -95 l11 -50 65 1 c74 1 121 20 147 61 14 22 18 49 18 135 0 59 -4 111 -10 117 -6 6 -30 3 -65 -8z" />
    <path
       id="path90"
       d="M7576 2947 c-44 -54 -75 -122 -76 -164 0 -49 39 -140 81 -186 45 -50 59 -46 102 29 23 41 27 58 24 104 -3 55 -73 260 -88 260 -4 0 -24 -19 -43 -43z" />
    <path
       id="path92"
       d="M3286 2888 c-7 -13 -24 -54 -36 -92 -30 -91 -25 -182 14 -248 44 -76 73 -75 126 3 29 43 35 61 38 120 4 67 3 71 -38 133 -44 69 -74 106 -83 106 -4 0 -13 -10 -21 -22z" />
    <path
       id="path94"
       d="M5034 2859 c-8 -17 -22 -50 -30 -73 -8 -22 -26 -58 -41 -78 -30 -44 -28 -86 8 -183 23 -63 91 -145 119 -145 17 0 113 127 150 200 33 66 27 93 -53 204 -4 6 -16 32 -28 59 -20 48 -35 57 -57 35 -9 -9 -15 -9 -24 0 -18 18 -26 15 -44 -19z" />
    <path
       id="path96"
       d="M5612 2811 c-12 -25 -37 -71 -57 -101 -30 -46 -36 -62 -31 -93 7 -63 134 -256 168 -257 25 0 106 108 123 167 20 69 19 102 -5 143 -11 19 -27 51 -36 70 -48 111 -51 115 -98 116 -41 1 -43 -1 -64 -45z" />
    <path
       id="path98"
       d="M2747 2825 c-21 -7 -41 -16 -44 -19 -22 -22 109 -162 159 -171 42 -8 188 20 207 39 12 13 9 22 -24 70 -50 73 -97 96 -191 96 -38 -1 -86 -7 -107 -15z" />
    <path
       id="path100"
       d="M7399 2778 c-7 -13 -15 -25 -18 -28 -3 -3 -15 -18 -27 -35 -68 -97 -74 -158 -26 -257 18 -36 44 -78 58 -93 l26 -28 39 39 c50 50 70 136 50 206 -37 126 -68 212 -78 215 -6 2 -17 -6 -24 -19z" />
    <path
       id="path102"
       d="M3466 2693 c-20 -70 -36 -183 -31 -222 14 -104 101 -223 140 -191 22 18 53 91 60 142 8 55 -13 130 -48 168 -12 14 -40 46 -61 73 -42 51 -52 56 -60 30z" />
    <path
       id="path104"
       d="M7786 2666 c-46 -17 -87 -55 -112 -102 -19 -35 -19 -36 0 -49 47 -35 205 -46 262 -19 38 18 97 84 113 127 10 25 8 29 -17 38 -45 19 -202 21 -246 5z" />
    <path
       id="path106"
       d="M4841 2556 c-36 -63 -41 -133 -16 -231 17 -64 81 -169 97 -159 17 11 67 126 74 169 5 37 -1 55 -52 158 -32 64 -61 117 -65 117 -4 0 -21 -24 -38 -54z" />
    <path
       id="path108"
       d="M5265 2558 c-14 -29 -36 -71 -50 -93 -14 -22 -25 -52 -25 -68 0 -58 88 -176 173 -232 26 -17 28 -16 69 8 52 30 101 89 134 161 26 57 25 94 -2 117 -8 6 -14 17 -14 24 0 6 -10 20 -21 31 -12 10 -30 38 -41 62 -10 23 -24 42 -29 42 -6 0 -25 -11 -43 -25 -18 -14 -36 -25 -40 -25 -4 0 -22 11 -40 25 -18 14 -36 25 -40 25 -3 0 -18 -24 -31 -52z" />
    <path
       id="path110"
       d="M3030 2595 c-8 -2 -49 -9 -90 -15 -41 -7 -78 -14 -83 -17 -11 -7 60 -89 116 -133 44 -35 56 -40 102 -40 60 0 176 33 194 54 16 19 3 43 -44 85 -67 58 -127 79 -195 66z" />
    <path
       id="path112"
       d="M7158 2523 c-38 -41 -70 -84 -78 -107 -17 -53 -6 -127 33 -203 24 -50 36 -63 54 -63 12 0 38 -16 57 -35 48 -48 105 -75 168 -82 43 -4 66 0 123 24 80 32 130 67 120 83 -4 7 -47 31 -96 55 -106 52 -184 65 -242 40 -46 -19 -66 -11 -41 16 26 29 30 126 9 241 -11 58 -23 98 -30 98 -6 0 -41 -30 -77 -67z" />
    <path
       id="path114"
       d="M5857 2564 c-4 -4 -7 -15 -7 -25 0 -10 -19 -62 -41 -115 -40 -91 -41 -98 -29 -137 17 -57 54 -128 77 -150 19 -17 21 -16 47 23 14 22 26 46 26 54 0 8 4 17 9 21 18 10 34 111 27 168 -11 86 -80 189 -109 161z" />
    <path
       id="path116"
       d="M3673 2483 c-4 -15 -7 -78 -7 -140 -1 -109 0 -113 30 -154 17 -23 49 -56 72 -72 49 -36 62 -30 86 40 19 55 20 84 5 155 -9 42 -22 63 -65 108 -29 30 -66 63 -83 73 l-30 18 -8 -28z" />
    <path
       id="path118"
       d="M7580 2434 c-40 -11 -67 -26 -99 -58 -55 -56 -51 -72 34 -114 73 -36 150 -43 208 -18 33 14 157 136 157 155 0 11 -5 13 -118 36 -88 18 -111 18 -182 -1z" />
    <path
       id="path120"
       d="M6975 2384 c-59 -39 -114 -94 -132 -132 -25 -52 -4 -211 32 -251 19 -19 53 -8 101 33 32 27 43 46 53 88 14 62 11 280 -4 285 -6 2 -28 -9 -50 -23z" />
    <path
       id="path122"
       d="M3220 2341 c-25 -4 -60 -15 -78 -24 -40 -22 -35 -36 40 -101 62 -54 109 -71 170 -62 48 7 168 72 168 91 0 19 -73 82 -109 94 -36 12 -117 13 -191 2z" />
    <path
       id="path124"
       d="M5100 2336 c-6 -8 -24 -16 -38 -18 -36 -4 -56 -61 -49 -140 8 -97 93 -238 142 -238 18 0 95 158 102 209 4 32 0 43 -24 72 -16 19 -44 55 -62 82 -33 49 -50 57 -71 33z" />
    <path
       id="path126"
       d="M5550 2258 c-30 -52 -53 -102 -52 -115 5 -59 95 -203 126 -203 21 0 54 43 87 111 34 69 38 117 18 194 -14 53 -33 73 -64 68 -16 -4 -27 1 -37 16 -7 12 -15 21 -18 21 -3 0 -30 -41 -60 -92z" />
    <path
       id="path128"
       d="M3900 2230 c0 -129 14 -184 61 -235 44 -47 99 -81 121 -73 20 8 43 135 35 193 -5 33 -18 59 -44 91 -36 43 -137 114 -162 114 -7 0 -11 -30 -11 -90z" />
    <path
       id="path130"
       d="M6741 2224 c-59 -25 -131 -85 -153 -127 -17 -35 -20 -53 -15 -117 8 -101 23 -150 46 -150 21 0 83 40 128 82 39 38 53 91 53 206 0 110 -10 127 -59 106z" />
    <path
       id="path132"
       d="M3525 2139 c-49 -11 -185 -69 -185 -79 0 -24 133 -104 199 -119 61 -13 124 8 185 62 48 44 48 45 32 69 -20 30 -122 78 -162 77 -16 -1 -47 -5 -69 -10z" />
    <path
       id="path134"
       d="M5281 2062 c-17 -38 -31 -75 -31 -84 0 -25 66 -104 98 -117 48 -20 73 -10 120 48 49 60 49 65 5 164 -14 31 -31 57 -38 57 -6 0 -22 -11 -35 -25 l-24 -25 -26 25 c-14 14 -29 25 -32 25 -3 0 -19 -31 -37 -68z" />
    <path
       id="path136"
       d="M6992 2005 c-71 -36 -79 -55 -45 -96 15 -18 48 -45 72 -61 38 -23 56 -28 110 -28 70 0 124 15 156 42 11 9 31 26 45 37 22 17 23 21 10 34 -28 28 -184 89 -240 94 -46 4 -64 0 -108 -22z" />
    <path
       id="path138"
       d="M3741 1925 c-106 -51 -135 -73 -120 -92 32 -38 202 -99 247 -88 38 9 128 70 148 100 22 34 14 48 -49 84 -76 43 -129 42 -226 -4z" />
    <path
       id="path140"
       d="M4087 1862 c-25 -28 -21 -37 33 -76 187 -134 445 -243 755 -319 216 -53 220 -54 250 -21 14 15 25 30 25 35 0 11 -100 42 -280 88 -235 60 -302 79 -379 106 -76 28 -279 142 -322 181 -30 29 -60 31 -82 6z" />
    <path
       id="path142"
       d="M6705 1841 c-82 -37 -81 -56 9 -139 84 -76 162 -79 300 -9 l60 29 -35 29 c-18 16 -59 40 -89 55 -123 59 -176 67 -245 35z" />
    <path
       id="path144"
       d="M6394 1756 c-169 -84 -189 -92 -334 -147 -121 -46 -339 -103 -454 -118 -44 -6 -82 -13 -84 -16 -6 -6 27 -44 48 -55 9 -5 36 -5 60 0 25 5 93 18 152 30 190 36 423 117 621 216 120 61 187 100 187 112 0 12 -30 52 -39 52 -4 0 -75 -33 -157 -74z" />
  </g>
  <path
     id="path979"
     d="m 589.23138,326.93097 c 3.07605,-0.45763 10.68668,-4.29958 10.68668,-4.29958 0,0 -1.67986,-5.77157 -2.85196,-7.22019 -1.17209,-1.4486 -2.95431,-12.421 -3.04039,-15.40232 -0.0861,-2.98135 -3.3062,-13.00081 -4.17882,-12.95378 -0.87262,0.0469 -0.83689,10.38745 -0.78865,12.28572 0.0482,1.89824 0.8208,15.5858 -6.01269,23.96284 0,0 3.60352,3.60892 6.18583,3.62731 z"
     style="fill:#000000;fill-opacity:1;fill-rule:evenodd;stroke:#000000;stroke-width:0.83092px;stroke-linecap:butt;stroke-linejoin:miter;stroke-opacity:1" />
</svg>
